<mxfile host="Electron" agent="Mozilla/5.0 (Windows NT 10.0; Win64; x64) AppleWebKit/537.36 (KHTML, like Gecko) draw.io/28.0.4 Chrome/138.0.7204.97 Electron/37.2.1 Safari/537.36" version="28.0.4">
  <diagram name="Page-1" id="iDILuCVLWbAyk1ljLvgh">
    <mxGraphModel dx="1413" dy="338" grid="1" gridSize="10" guides="1" tooltips="1" connect="1" arrows="1" fold="1" page="1" pageScale="1" pageWidth="850" pageHeight="1100" math="0" shadow="0">
      <root>
        <mxCell id="0" />
        <mxCell id="1" parent="0" />
        <mxCell id="Yj3CWWbE0M0fy8oBWhQx-1" value="" style="rounded=0;whiteSpace=wrap;html=1;dashed=1;" parent="1" vertex="1">
          <mxGeometry x="-760" y="70" width="160" height="400" as="geometry" />
        </mxCell>
        <mxCell id="Yj3CWWbE0M0fy8oBWhQx-2" value="&lt;font&gt;&lt;b&gt;Data Flow Diagram&lt;/b&gt;&lt;/font&gt;" style="text;html=1;align=center;verticalAlign=middle;whiteSpace=wrap;rounded=0;fontSize=22;" parent="1" vertex="1">
          <mxGeometry x="-745" y="10" width="210" height="30" as="geometry" />
        </mxCell>
        <mxCell id="Yj3CWWbE0M0fy8oBWhQx-3" value="&lt;font style=&quot;font-size: 17px;&quot;&gt;Sources&lt;/font&gt;" style="text;html=1;align=center;verticalAlign=middle;whiteSpace=wrap;rounded=0;fillColor=default;" parent="1" vertex="1">
          <mxGeometry x="-717.4100000000001" y="60" width="70" height="30" as="geometry" />
        </mxCell>
        <mxCell id="Yj3CWWbE0M0fy8oBWhQx-4" value="" style="image;aspect=fixed;html=1;points=[];align=center;fontSize=12;image=img/lib/azure2/general/Folder_Blank.svg;" parent="1" vertex="1">
          <mxGeometry x="-715.81" y="170" width="61.61" height="50" as="geometry" />
        </mxCell>
        <mxCell id="Yj3CWWbE0M0fy8oBWhQx-5" value="CRM" style="text;html=1;align=center;verticalAlign=middle;whiteSpace=wrap;rounded=0;fontStyle=1;fontSize=13;" parent="1" vertex="1">
          <mxGeometry x="-715.81" y="220" width="60" height="30" as="geometry" />
        </mxCell>
        <mxCell id="Yj3CWWbE0M0fy8oBWhQx-6" value="" style="image;aspect=fixed;html=1;points=[];align=center;fontSize=12;image=img/lib/azure2/general/Folder_Blank.svg;" parent="1" vertex="1">
          <mxGeometry x="-717.41" y="330" width="61.61" height="50" as="geometry" />
        </mxCell>
        <mxCell id="Yj3CWWbE0M0fy8oBWhQx-7" value="ERP" style="text;html=1;align=center;verticalAlign=middle;whiteSpace=wrap;rounded=0;fontStyle=1;fontSize=13;" parent="1" vertex="1">
          <mxGeometry x="-714.2" y="380" width="60" height="30" as="geometry" />
        </mxCell>
        <mxCell id="Yj3CWWbE0M0fy8oBWhQx-8" value="&lt;font&gt;&lt;b&gt;Bronze Layer&lt;/b&gt;&lt;/font&gt;" style="rounded=1;whiteSpace=wrap;html=1;fillColor=#ffe6cc;strokeColor=#d79b00;fontSize=14;" parent="1" vertex="1">
          <mxGeometry x="-550" y="60" width="130" height="30" as="geometry" />
        </mxCell>
        <mxCell id="Yj3CWWbE0M0fy8oBWhQx-9" value="" style="rounded=1;whiteSpace=wrap;html=1;fillColor=none;strokeColor=#d79b00;fontSize=14;" parent="1" vertex="1">
          <mxGeometry x="-550" y="100" width="130" height="370" as="geometry" />
        </mxCell>
        <mxCell id="VW4uENw2Oh4PfcU5jdSc-9" style="edgeStyle=orthogonalEdgeStyle;rounded=0;orthogonalLoop=1;jettySize=auto;html=1;exitX=1;exitY=0.5;exitDx=0;exitDy=0;entryX=0;entryY=0.5;entryDx=0;entryDy=0;" parent="1" source="Yj3CWWbE0M0fy8oBWhQx-10" target="VW4uENw2Oh4PfcU5jdSc-3" edge="1">
          <mxGeometry relative="1" as="geometry" />
        </mxCell>
        <mxCell id="Yj3CWWbE0M0fy8oBWhQx-10" value="crm_sales_details" style="rounded=1;whiteSpace=wrap;html=1;fillColor=#ffe6cc;strokeColor=#d79b00;fontSize=12;fontStyle=0" parent="1" vertex="1">
          <mxGeometry x="-535" y="150" width="100" height="20" as="geometry" />
        </mxCell>
        <mxCell id="Yj3CWWbE0M0fy8oBWhQx-11" value="&lt;font&gt;&lt;span&gt;crm_cust_info&lt;/span&gt;&lt;/font&gt;" style="rounded=1;whiteSpace=wrap;html=1;fillColor=#ffe6cc;strokeColor=#d79b00;fontSize=12;fontStyle=0" parent="1" vertex="1">
          <mxGeometry x="-535" y="190" width="100" height="20" as="geometry" />
        </mxCell>
        <mxCell id="Yj3CWWbE0M0fy8oBWhQx-12" value="crm_prd_info" style="rounded=1;whiteSpace=wrap;html=1;fillColor=#ffe6cc;strokeColor=#d79b00;fontSize=12;fontStyle=0" parent="1" vertex="1">
          <mxGeometry x="-535" y="230" width="100" height="20" as="geometry" />
        </mxCell>
        <mxCell id="Yj3CWWbE0M0fy8oBWhQx-13" value="erp_cust_az12" style="rounded=1;whiteSpace=wrap;html=1;fillColor=#ffe6cc;strokeColor=#d79b00;fontSize=12;fontStyle=0" parent="1" vertex="1">
          <mxGeometry x="-535" y="310" width="100" height="20" as="geometry" />
        </mxCell>
        <mxCell id="Yj3CWWbE0M0fy8oBWhQx-14" value="erp_loc_a101" style="rounded=1;whiteSpace=wrap;html=1;fillColor=#ffe6cc;strokeColor=#d79b00;fontSize=12;fontStyle=0" parent="1" vertex="1">
          <mxGeometry x="-535" y="350" width="100" height="20" as="geometry" />
        </mxCell>
        <mxCell id="Yj3CWWbE0M0fy8oBWhQx-15" value="erp_px_cat_g1v2" style="rounded=1;whiteSpace=wrap;html=1;fillColor=#ffe6cc;strokeColor=#d79b00;fontSize=12;fontStyle=0" parent="1" vertex="1">
          <mxGeometry x="-535" y="390" width="100" height="20" as="geometry" />
        </mxCell>
        <mxCell id="Yj3CWWbE0M0fy8oBWhQx-16" value="" style="endArrow=classic;html=1;rounded=0;entryX=0;entryY=0.5;entryDx=0;entryDy=0;exitX=0.994;exitY=0.611;exitDx=0;exitDy=0;exitPerimeter=0;" parent="1" source="Yj3CWWbE0M0fy8oBWhQx-4" target="Yj3CWWbE0M0fy8oBWhQx-11" edge="1">
          <mxGeometry width="50" height="50" relative="1" as="geometry">
            <mxPoint x="-650" y="200" as="sourcePoint" />
            <mxPoint x="-540" y="200" as="targetPoint" />
          </mxGeometry>
        </mxCell>
        <mxCell id="Yj3CWWbE0M0fy8oBWhQx-17" value="" style="endArrow=classic;html=1;rounded=0;entryX=0;entryY=0.5;entryDx=0;entryDy=0;" parent="1" target="Yj3CWWbE0M0fy8oBWhQx-10" edge="1">
          <mxGeometry width="50" height="50" relative="1" as="geometry">
            <mxPoint x="-580" y="200" as="sourcePoint" />
            <mxPoint x="-470" y="210" as="targetPoint" />
            <Array as="points">
              <mxPoint x="-580" y="160" />
            </Array>
          </mxGeometry>
        </mxCell>
        <mxCell id="Yj3CWWbE0M0fy8oBWhQx-18" value="" style="endArrow=classic;html=1;rounded=0;entryX=0;entryY=0.5;entryDx=0;entryDy=0;" parent="1" target="Yj3CWWbE0M0fy8oBWhQx-12" edge="1">
          <mxGeometry width="50" height="50" relative="1" as="geometry">
            <mxPoint x="-580" y="200" as="sourcePoint" />
            <mxPoint x="-525" y="170" as="targetPoint" />
            <Array as="points">
              <mxPoint x="-580" y="240" />
            </Array>
          </mxGeometry>
        </mxCell>
        <mxCell id="Yj3CWWbE0M0fy8oBWhQx-19" value="" style="endArrow=classic;html=1;rounded=0;entryX=0;entryY=0.5;entryDx=0;entryDy=0;exitX=0.994;exitY=0.611;exitDx=0;exitDy=0;exitPerimeter=0;" parent="1" edge="1">
          <mxGeometry width="50" height="50" relative="1" as="geometry">
            <mxPoint x="-655.81" y="361" as="sourcePoint" />
            <mxPoint x="-535.81" y="360" as="targetPoint" />
          </mxGeometry>
        </mxCell>
        <mxCell id="Yj3CWWbE0M0fy8oBWhQx-20" value="" style="endArrow=classic;html=1;rounded=0;entryX=0;entryY=0.5;entryDx=0;entryDy=0;" parent="1" edge="1">
          <mxGeometry width="50" height="50" relative="1" as="geometry">
            <mxPoint x="-580.81" y="360" as="sourcePoint" />
            <mxPoint x="-535.81" y="320" as="targetPoint" />
            <Array as="points">
              <mxPoint x="-580.81" y="320" />
            </Array>
          </mxGeometry>
        </mxCell>
        <mxCell id="Yj3CWWbE0M0fy8oBWhQx-21" value="" style="endArrow=classic;html=1;rounded=0;entryX=0;entryY=0.5;entryDx=0;entryDy=0;" parent="1" edge="1">
          <mxGeometry width="50" height="50" relative="1" as="geometry">
            <mxPoint x="-580.81" y="360" as="sourcePoint" />
            <mxPoint x="-535.81" y="400" as="targetPoint" />
            <Array as="points">
              <mxPoint x="-580.81" y="400" />
            </Array>
          </mxGeometry>
        </mxCell>
        <mxCell id="VW4uENw2Oh4PfcU5jdSc-1" value="Silver layer" style="rounded=1;whiteSpace=wrap;html=1;fillColor=#f5f5f5;strokeColor=#666666;fontSize=14;fontStyle=1;fontColor=#333333;" parent="1" vertex="1">
          <mxGeometry x="-380" y="60" width="130" height="30" as="geometry" />
        </mxCell>
        <mxCell id="VW4uENw2Oh4PfcU5jdSc-2" value="" style="rounded=1;whiteSpace=wrap;html=1;fillColor=none;strokeColor=#666666;fontSize=14;fontColor=#333333;" parent="1" vertex="1">
          <mxGeometry x="-380" y="100" width="130" height="370" as="geometry" />
        </mxCell>
        <mxCell id="VW4uENw2Oh4PfcU5jdSc-3" value="crm_sales_details" style="rounded=1;whiteSpace=wrap;html=1;fillColor=#f5f5f5;strokeColor=#666666;fontSize=12;fontStyle=0;fontColor=#333333;" parent="1" vertex="1">
          <mxGeometry x="-365" y="150" width="100" height="20" as="geometry" />
        </mxCell>
        <mxCell id="VW4uENw2Oh4PfcU5jdSc-4" value="&lt;font&gt;&lt;span&gt;crm_cust_info&lt;/span&gt;&lt;/font&gt;" style="rounded=1;whiteSpace=wrap;html=1;fillColor=#f5f5f5;strokeColor=#666666;fontSize=12;fontStyle=0;fontColor=#333333;" parent="1" vertex="1">
          <mxGeometry x="-365" y="190" width="100" height="20" as="geometry" />
        </mxCell>
        <mxCell id="VW4uENw2Oh4PfcU5jdSc-5" value="crm_prd_info" style="rounded=1;whiteSpace=wrap;html=1;fillColor=#f5f5f5;strokeColor=#666666;fontSize=12;fontStyle=0;fontColor=#333333;" parent="1" vertex="1">
          <mxGeometry x="-365" y="230" width="100" height="20" as="geometry" />
        </mxCell>
        <mxCell id="VW4uENw2Oh4PfcU5jdSc-6" value="erp_cust_az12" style="rounded=1;whiteSpace=wrap;html=1;fillColor=#f5f5f5;strokeColor=#666666;fontSize=12;fontStyle=0;fontColor=#333333;" parent="1" vertex="1">
          <mxGeometry x="-365" y="310" width="100" height="20" as="geometry" />
        </mxCell>
        <mxCell id="VW4uENw2Oh4PfcU5jdSc-7" value="erp_loc_a101" style="rounded=1;whiteSpace=wrap;html=1;fillColor=#f5f5f5;strokeColor=#666666;fontSize=12;fontStyle=0;fontColor=#333333;" parent="1" vertex="1">
          <mxGeometry x="-365" y="350" width="100" height="20" as="geometry" />
        </mxCell>
        <mxCell id="VW4uENw2Oh4PfcU5jdSc-8" value="erp_px_cat_g1v2" style="rounded=1;whiteSpace=wrap;html=1;fillColor=#f5f5f5;strokeColor=#666666;fontSize=12;fontStyle=0;fontColor=#333333;" parent="1" vertex="1">
          <mxGeometry x="-365" y="390" width="100" height="20" as="geometry" />
        </mxCell>
        <mxCell id="VW4uENw2Oh4PfcU5jdSc-10" style="edgeStyle=orthogonalEdgeStyle;rounded=0;orthogonalLoop=1;jettySize=auto;html=1;exitX=1;exitY=0.5;exitDx=0;exitDy=0;entryX=0;entryY=0.5;entryDx=0;entryDy=0;" parent="1" edge="1">
          <mxGeometry relative="1" as="geometry">
            <mxPoint x="-435" y="199.32999999999998" as="sourcePoint" />
            <mxPoint x="-365" y="199.32999999999998" as="targetPoint" />
          </mxGeometry>
        </mxCell>
        <mxCell id="VW4uENw2Oh4PfcU5jdSc-12" style="edgeStyle=orthogonalEdgeStyle;rounded=0;orthogonalLoop=1;jettySize=auto;html=1;exitX=1;exitY=0.5;exitDx=0;exitDy=0;entryX=0;entryY=0.5;entryDx=0;entryDy=0;" parent="1" edge="1">
          <mxGeometry relative="1" as="geometry">
            <mxPoint x="-435" y="239.32999999999998" as="sourcePoint" />
            <mxPoint x="-365" y="239.32999999999998" as="targetPoint" />
          </mxGeometry>
        </mxCell>
        <mxCell id="VW4uENw2Oh4PfcU5jdSc-13" style="edgeStyle=orthogonalEdgeStyle;rounded=0;orthogonalLoop=1;jettySize=auto;html=1;exitX=1;exitY=0.5;exitDx=0;exitDy=0;entryX=0;entryY=0.5;entryDx=0;entryDy=0;" parent="1" edge="1">
          <mxGeometry relative="1" as="geometry">
            <mxPoint x="-435" y="319.33" as="sourcePoint" />
            <mxPoint x="-365" y="319.33" as="targetPoint" />
          </mxGeometry>
        </mxCell>
        <mxCell id="VW4uENw2Oh4PfcU5jdSc-14" style="edgeStyle=orthogonalEdgeStyle;rounded=0;orthogonalLoop=1;jettySize=auto;html=1;exitX=1;exitY=0.5;exitDx=0;exitDy=0;entryX=0;entryY=0.5;entryDx=0;entryDy=0;" parent="1" edge="1">
          <mxGeometry relative="1" as="geometry">
            <mxPoint x="-435" y="359.33" as="sourcePoint" />
            <mxPoint x="-365" y="359.33" as="targetPoint" />
          </mxGeometry>
        </mxCell>
        <mxCell id="VW4uENw2Oh4PfcU5jdSc-15" style="edgeStyle=orthogonalEdgeStyle;rounded=0;orthogonalLoop=1;jettySize=auto;html=1;exitX=1;exitY=0.5;exitDx=0;exitDy=0;entryX=0;entryY=0.5;entryDx=0;entryDy=0;" parent="1" edge="1">
          <mxGeometry relative="1" as="geometry">
            <mxPoint x="-435" y="399.33" as="sourcePoint" />
            <mxPoint x="-365" y="399.33" as="targetPoint" />
          </mxGeometry>
        </mxCell>
        <mxCell id="p6czPtWazwwpnGXt4hO_-9" value="Gold Layer" style="rounded=1;whiteSpace=wrap;html=1;fillColor=#fff2cc;strokeColor=#d6b656;fontSize=14;fontStyle=1;" vertex="1" parent="1">
          <mxGeometry x="-190" y="60" width="130" height="30" as="geometry" />
        </mxCell>
        <mxCell id="p6czPtWazwwpnGXt4hO_-10" value="" style="rounded=1;whiteSpace=wrap;html=1;fillColor=none;strokeColor=#d6b656;fontSize=14;" vertex="1" parent="1">
          <mxGeometry x="-190" y="100" width="130" height="370" as="geometry" />
        </mxCell>
        <mxCell id="p6czPtWazwwpnGXt4hO_-11" value="fact_sales" style="rounded=1;whiteSpace=wrap;html=1;fillColor=#fff2cc;strokeColor=#d6b656;fontSize=12;fontStyle=0;" vertex="1" parent="1">
          <mxGeometry x="-175" y="150" width="100" height="20" as="geometry" />
        </mxCell>
        <mxCell id="p6czPtWazwwpnGXt4hO_-12" value="dim_customers" style="rounded=1;whiteSpace=wrap;html=1;fillColor=#fff2cc;strokeColor=#d6b656;fontSize=12;fontStyle=0;" vertex="1" parent="1">
          <mxGeometry x="-175" y="240" width="100" height="20" as="geometry" />
        </mxCell>
        <mxCell id="p6czPtWazwwpnGXt4hO_-13" value="dim_products" style="rounded=1;whiteSpace=wrap;html=1;fillColor=#fff2cc;strokeColor=#d6b656;fontSize=12;fontStyle=0;" vertex="1" parent="1">
          <mxGeometry x="-175" y="330" width="100" height="20" as="geometry" />
        </mxCell>
        <mxCell id="p6czPtWazwwpnGXt4hO_-17" value="" style="endArrow=classic;html=1;rounded=0;entryX=0;entryY=0.5;entryDx=0;entryDy=0;exitX=1;exitY=0.5;exitDx=0;exitDy=0;jumpStyle=gap;" edge="1" parent="1" source="VW4uENw2Oh4PfcU5jdSc-3" target="p6czPtWazwwpnGXt4hO_-11">
          <mxGeometry width="50" height="50" relative="1" as="geometry">
            <mxPoint x="-450" y="350" as="sourcePoint" />
            <mxPoint x="-400" y="300" as="targetPoint" />
          </mxGeometry>
        </mxCell>
        <mxCell id="p6czPtWazwwpnGXt4hO_-18" value="" style="endArrow=classic;html=1;rounded=0;entryX=0;entryY=0.5;entryDx=0;entryDy=0;exitX=1;exitY=0.5;exitDx=0;exitDy=0;jumpStyle=gap;" edge="1" parent="1" target="p6czPtWazwwpnGXt4hO_-12">
          <mxGeometry width="50" height="50" relative="1" as="geometry">
            <mxPoint x="-265" y="199.73" as="sourcePoint" />
            <mxPoint x="-175" y="199.73" as="targetPoint" />
          </mxGeometry>
        </mxCell>
        <mxCell id="p6czPtWazwwpnGXt4hO_-19" value="" style="endArrow=classic;html=1;rounded=0;entryX=0;entryY=0.5;entryDx=0;entryDy=0;exitX=1;exitY=0.5;exitDx=0;exitDy=0;jumpStyle=gap;" edge="1" parent="1" target="p6czPtWazwwpnGXt4hO_-13">
          <mxGeometry width="50" height="50" relative="1" as="geometry">
            <mxPoint x="-265" y="240" as="sourcePoint" />
            <mxPoint x="-175" y="290.27" as="targetPoint" />
          </mxGeometry>
        </mxCell>
        <mxCell id="p6czPtWazwwpnGXt4hO_-20" value="" style="endArrow=classic;html=1;rounded=0;entryX=0;entryY=0.5;entryDx=0;entryDy=0;exitX=1;exitY=0.5;exitDx=0;exitDy=0;jumpStyle=gap;" edge="1" parent="1" target="p6czPtWazwwpnGXt4hO_-12">
          <mxGeometry width="50" height="50" relative="1" as="geometry">
            <mxPoint x="-265" y="320" as="sourcePoint" />
            <mxPoint x="-175" y="420" as="targetPoint" />
          </mxGeometry>
        </mxCell>
        <mxCell id="p6czPtWazwwpnGXt4hO_-21" value="" style="endArrow=classic;html=1;rounded=0;exitX=1;exitY=0.5;exitDx=0;exitDy=0;jumpStyle=gap;" edge="1" parent="1">
          <mxGeometry width="50" height="50" relative="1" as="geometry">
            <mxPoint x="-265" y="360" as="sourcePoint" />
            <mxPoint x="-175" y="250" as="targetPoint" />
          </mxGeometry>
        </mxCell>
        <mxCell id="p6czPtWazwwpnGXt4hO_-22" value="" style="endArrow=classic;html=1;rounded=0;exitX=1;exitY=0.5;exitDx=0;exitDy=0;entryX=0;entryY=0.5;entryDx=0;entryDy=0;jumpStyle=gap;" edge="1" parent="1" target="p6czPtWazwwpnGXt4hO_-13">
          <mxGeometry width="50" height="50" relative="1" as="geometry">
            <mxPoint x="-265" y="400" as="sourcePoint" />
            <mxPoint x="-175" y="290" as="targetPoint" />
          </mxGeometry>
        </mxCell>
      </root>
    </mxGraphModel>
  </diagram>
</mxfile>
